<svg width="166" height="38" viewBox="0 0 166 38" fill="none" xmlns="http://www.w3.org/2000/svg">
<path fill-rule="evenodd" clip-rule="evenodd" d="M18.646 9.52759L14.5 7L10.354 9.52759L5.53851 9.96024L3.6457 14.4826L0 17.7102L1.08334 22.5L0 27.2898L3.6457 30.5174L5.53851 35.0398L10.354 35.4724L14.5 38L18.646 35.4724L23.4615 35.0398L25.3543 30.5174L29 27.2898L27.9167 22.5L29 17.7102L25.3543 14.4826L23.4615 9.96024L18.646 9.52759ZM19.6301 15.3215L16.8734 15.0738L14.5 13.6269L12.1266 15.0738L9.36991 15.3215L8.28635 17.9104L6.19933 19.7581L6.8195 22.5L6.19933 25.2419L8.28635 27.0896L9.36991 29.6785L12.1266 29.9262L14.5 31.3731L16.8734 29.9262L19.6301 29.6785L20.7137 27.0896L22.8007 25.2419L22.1805 22.5L22.8007 19.7581L20.7137 17.9104L19.6301 15.3215Z" fill="#EC6565"/>
<path d="M158.873 35.7507V32.7859C156.489 35.1113 153.175 36.5646 149.571 36.5646C142.246 36.5646 136.316 30.6349 136.316 23.2519C136.316 15.9269 142.246 9.93909 149.571 9.93909C153.175 9.93909 156.489 11.3925 158.873 13.7178V0L165.732 4.15708V35.7507H158.873ZM143.99 23.2519C143.99 25.054 144.688 26.798 145.909 28.077C147.129 29.356 148.757 30.0536 150.501 30.0536C152.245 30.0536 153.931 29.356 155.152 28.077C156.373 26.798 157.07 25.054 157.07 23.2519C157.07 21.4497 156.373 19.7638 155.152 18.4267C153.931 17.1477 152.245 16.4501 150.501 16.4501C148.757 16.4501 147.129 17.1477 145.909 18.4267C144.688 19.7638 143.99 21.4497 143.99 23.2519Z" fill="white"/>
<path d="M132.443 10.6947V23.1354C132.443 30.5185 126.048 36.4482 119.305 36.4482C112.503 36.4482 106.167 30.5185 106.167 23.1354V10.6947H113.608V22.961C113.608 24.7051 114.247 26.3328 115.177 27.4955C116.34 28.7163 117.852 29.4139 119.305 29.4139C120.758 29.4139 122.27 28.7163 123.374 27.4955C124.363 26.3328 125.002 24.7051 125.002 22.961V10.6947H132.443Z" fill="white"/>
<path d="M101.987 12.5554L98.6153 18.4851C94.8365 14.3575 86.6977 16.9736 86.6977 23.2521C86.6977 28.833 94.2552 32.3792 98.6153 28.0772L101.871 33.8907C99.5454 35.4603 96.6968 36.4486 93.6157 36.4486C85.942 36.4486 79.7216 30.5189 79.7216 23.1358C79.7216 15.8109 85.942 9.8812 93.6157 9.8812C96.755 9.8812 99.6036 10.8695 101.987 12.5554Z" fill="white"/>
<path d="M55 31.9141L59.6507 27.2052C63.3132 31.3909 68.8941 31.5653 68.8941 28.426C68.8941 26.5657 67.0919 25.9844 65.2316 25.403C60.3484 23.8915 56.9766 22.3801 56.9766 17.5549C56.9766 12.9623 61.1041 9.9393 65.8711 9.9393C70.1731 9.9393 72.4984 10.8695 75.8702 12.9042L72.4984 18.1944C67.6151 14.7063 64.3015 14.997 63.9527 17.6712C63.662 19.5315 66.3943 19.8803 69.301 20.8686C72.8472 21.915 76.1609 24.2985 76.1609 28.6004C76.1609 32.6117 72.0334 36.4486 66.9175 36.4486C62.3831 36.4486 58.0811 34.9952 55 31.9141Z" fill="white"/>
<line x1="41.5" y1="9" x2="41.5" y2="36" stroke="white" stroke-opacity="0.2"/>
</svg>
